<svg width="32" height="33" viewBox="0 0 32 33" fill="none" xmlns="http://www.w3.org/2000/svg">
<g id="Telegram">
<rect y="0.5" width="32" height="32" rx="16" fill="white"/>
<path id="Subtract" fill-rule="evenodd" clip-rule="evenodd" d="M28.8201 16.5C28.8201 23.6797 22.9998 29.5 15.8201 29.5C8.64038 29.5 2.82007 23.6797 2.82007 16.5C2.82007 9.32031 8.64038 3.5 15.8201 3.5C22.9998 3.5 28.8201 9.32031 28.8201 16.5ZM17.0658 12.511C14.8325 13.4757 8.39295 16.2153 8.39295 16.2153C6.86683 16.8327 7.76012 17.4114 7.76012 17.4114C7.76012 17.4114 9.06292 17.8745 10.1796 18.2217C11.2963 18.569 11.8919 18.1832 11.8919 18.1832C11.8919 18.1832 14.4975 16.4082 17.1403 14.5175C19.0014 13.2056 18.5548 14.286 18.1081 14.749C17.1403 15.7523 15.5397 17.3343 14.1997 18.6076C13.6041 19.1479 13.9019 19.6109 14.1625 19.8424C14.9203 20.5071 16.7051 21.716 17.5154 22.2648C17.74 22.4169 17.8897 22.5183 17.922 22.5434C18.1081 22.6978 19.1503 23.3923 19.7831 23.238C20.4159 23.0836 20.4903 22.1961 20.4903 22.1961C20.4903 22.1961 20.9742 19.0321 21.4209 16.1381C21.5036 15.5699 21.5864 15.0136 21.6635 14.4949C21.864 13.1466 22.0268 12.0522 22.0537 11.6621C22.1654 10.3502 20.8253 10.8904 20.8253 10.8904C20.8253 10.8904 17.922 12.1252 17.0658 12.511Z" fill="#34AADF"/>
</g>
</svg>
